<svg width="144" height="144" viewBox="0 0 144 144" fill="none" xmlns="http://www.w3.org/2000/svg">
<path d="M72 124.342C83.6521 125.606 96.5152 125.675 105.805 118.528C115.017 111.442 117.255 98.8752 119.835 87.5427C122.196 77.174 121.447 66.949 119.945 56.4216C118.103 43.5037 119.932 28.1309 110.132 19.5162C100.253 10.8335 84.874 11.5902 72 14.2787C60.6461 16.6498 52.1868 25.2135 43.9151 33.3445C36.8158 40.3231 32.9235 49.085 27.8676 57.6605C21.0059 69.2992 5.3983 79.4449 9.07035 92.4471C12.7056 105.319 31.2065 105.68 43.1369 111.727C52.7374 116.592 61.2996 123.18 72 124.342Z" fill="#35989D"/>
<path d="M93.3051 21.1525H50.6949C32.1864 21.1525 21.1525 32.1864 21.1525 50.6949V93.2542C21.1525 111.814 32.1864 122.847 50.6949 122.847H93.2542C111.763 122.847 122.797 111.814 122.797 93.3051V50.6949C122.847 32.1864 111.814 21.1525 93.3051 21.1525ZM99.2034 57L87.3051 95.339C84.4576 104.441 71.6949 104.593 68.6949 95.5424L65.1356 85.0169C64.1695 82.1186 61.8814 79.7797 58.983 78.8644L48.4068 75.3051C39.4576 72.3051 39.5593 59.4407 48.661 56.6949L87 44.7457C94.5254 42.4576 101.593 49.5254 99.2034 57Z" fill="#292D32" stroke="#18776F" stroke-width="0.00024"/>
</svg>
